# xmcd
#
# Track frame offsets: 
#        150
#        17241
#        58681
#        90899
#        128214
#        165533
#        198154
#        233994
#        263471
#
# Disc length: 4046 seconds
#
# Revision: 1
# Processed by: cddbd v1.5.1PL2 Copyright (c) Steve Scherf et al.
# Submitted via: ExactAudioCopy v0.95b3
#
DISCID=680fcc09
DTITLE=Judy Cheeks - Reach (Positiva Remixed) [UK]
DYEAR=2003
DGENRE=Club
TTITLE0=Reach [Brothers In Rhythm Radio Edit]
TTITLE1=Reach [Brothers In Rhythm Club Mix]
TTITLE2=Reach [Friday Night Posse Remix]
TTITLE3=Reach [Hoxton Whores Remix]
TTITLE4=Reach [Hoxton Whores Dub]
TTITLE5=Reach [Dancing Divas Remix]
TTITLE6=Reach [Quivver Vocal Remix]
TTITLE7=Reach [Mount Rushmore 'Attack The Track' Vocal Remix]
TTITLE8=Reach [Tommy's Club Mix]
EXTD=YEAR: 2003
EXTT0=
EXTT1=
EXTT2=
EXTT3=
EXTT4=
EXTT5=
EXTT6=
EXTT7=
EXTT8=
PLAYORDER=
